<svg  xmlns="http://www.w3.org/2000/svg">
<defs>
    <symbol id="bell">
<path fill-rule="evenodd" clip-rule="evenodd" d="M7.05033 3.05025C8.36309 1.7375 10.1436 1 12.0001 1C13.8566 1 15.6371 1.7375 16.9498 3.05025C18.2626 4.36301 19.0001 6.14349 19.0001 8C19.0001 11.3527 19.7171 13.4346 20.378 14.6461C20.7098 15.2544 21.0329 15.6535 21.2573 15.8904C21.3698 16.0091 21.4581 16.0878 21.5114 16.1322C21.538 16.1544 21.5558 16.168 21.5635 16.1737C21.5647 16.1746 21.5657 16.1753 21.5664 16.1758C21.9249 16.4221 22.0835 16.8725 21.9572 17.2898C21.8295 17.7115 21.4407 18 21.0001 18H3.00008C2.55941 18 2.17068 17.7115 2.04299 17.2898C1.91664 16.8725 2.07528 16.4221 2.43377 16.1758C2.43447 16.1753 2.43542 16.1746 2.43663 16.1737C2.44432 16.168 2.46218 16.1544 2.4888 16.1322C2.54202 16.0878 2.6304 16.0091 2.74288 15.8904C2.9673 15.6535 3.29039 15.2544 3.62218 14.6461C4.28301 13.4346 5.00008 11.3527 5.00008 8C5.00008 6.14348 5.73758 4.36301 7.05033 3.05025ZM2.44388 16.169C2.44395 16.1689 2.44403 16.1688 2.44411 16.1688C2.44411 16.1688 2.4441 16.1688 2.4441 16.1688L2.44388 16.169ZM5.1494 16H18.8508C18.7747 15.8753 18.6983 15.7434 18.6222 15.6039C17.783 14.0654 17.0001 11.6473 17.0001 8C17.0001 6.67392 16.4733 5.40215 15.5356 4.46447C14.5979 3.52678 13.3262 3 12.0001 3C10.674 3 9.40223 3.52678 8.46454 4.46447C7.52686 5.40215 7.00008 6.67392 7.00008 8C7.00008 11.6473 6.21715 14.0654 5.37797 15.6039C5.30188 15.7434 5.22549 15.8753 5.1494 16Z" fill="currentColor"/>
<path fill-rule="evenodd" clip-rule="evenodd" d="M9.76817 20.135C10.2459 19.8579 10.8578 20.0205 11.1349 20.4982C11.2228 20.6498 11.349 20.7756 11.5008 20.863C11.6526 20.9504 11.8247 20.9965 11.9999 20.9965C12.1751 20.9965 12.3472 20.9504 12.4991 20.863C12.6509 20.7756 12.777 20.6498 12.8649 20.4982C13.1421 20.0205 13.754 19.8579 14.2317 20.135C14.7094 20.4121 14.8721 21.0241 14.5949 21.5018C14.3312 21.9564 13.9527 22.3338 13.4973 22.5961C13.0419 22.8584 12.5255 22.9965 11.9999 22.9965C11.4744 22.9965 10.958 22.8584 10.5026 22.5961C10.0472 22.3338 9.66866 21.9564 9.40494 21.5018C9.12782 21.0241 9.29044 20.4121 9.76817 20.135Z" fill="currentColor"/>
</symbol>
<symbol id="calendar" >
<path fill-rule="evenodd" clip-rule="evenodd" d="M5 5C4.44772 5 4 5.44772 4 6V20C4 20.5523 4.44772 21 5 21H19C19.5523 21 20 20.5523 20 20V6C20 5.44772 19.5523 5 19 5H5ZM2 6C2 4.34315 3.34315 3 5 3H19C20.6569 3 22 4.34315 22 6V20C22 21.6569 20.6569 23 19 23H5C3.34315 23 2 21.6569 2 20V6Z" fill="currentColor"/>
<path fill-rule="evenodd" clip-rule="evenodd" d="M16 1C16.5523 1 17 1.44772 17 2V6C17 6.55228 16.5523 7 16 7C15.4477 7 15 6.55228 15 6V2C15 1.44772 15.4477 1 16 1Z" fill="currentColor"/>
<path fill-rule="evenodd" clip-rule="evenodd" d="M8 1C8.55228 1 9 1.44772 9 2V6C9 6.55228 8.55228 7 8 7C7.44772 7 7 6.55228 7 6V2C7 1.44772 7.44772 1 8 1Z" fill="currentColor"/>
<path fill-rule="evenodd" clip-rule="evenodd" d="M2 10C2 9.44772 2.44772 9 3 9H21C21.5523 9 22 9.44772 22 10C22 10.5523 21.5523 11 21 11H3C2.44772 11 2 10.5523 2 10Z" fill="currentColor9"/>
</symbol>
<symbol id="star">
<path fill-rule="evenodd" clip-rule="evenodd" d="M12 1C12.3806 1 12.7283 1.21607 12.8967 1.55738L15.7543 7.34647L22.1447 8.28051C22.5212 8.33555 22.8339 8.59956 22.9513 8.96157C23.0687 9.32358 22.9704 9.72083 22.6978 9.98636L18.0746 14.4894L19.1656 20.851C19.23 21.2261 19.0757 21.6053 18.7678 21.8291C18.4598 22.0528 18.0515 22.0823 17.7146 21.9051L12 18.8998L6.28548 21.9051C5.94856 22.0823 5.54027 22.0528 5.2323 21.8291C4.92432 21.6053 4.77007 21.2261 4.83442 20.851L5.92551 14.4894L1.3023 9.98636C1.02968 9.72083 0.931405 9.32358 1.04878 8.96157C1.16616 8.59956 1.47884 8.33555 1.8554 8.28051L8.24577 7.34647L11.1033 1.55738C11.2718 1.21607 11.6194 1 12 1ZM12 4.25925L9.80674 8.70262C9.6612 8.99747 9.38001 9.20193 9.05466 9.24949L4.14844 9.9666L7.69776 13.4236C7.93364 13.6534 8.0413 13.9845 7.98564 14.309L7.14821 19.1917L11.5346 16.8849C11.826 16.7317 12.1741 16.7317 12.4655 16.8849L16.8518 19.1917L16.0144 14.309C15.9588 13.9845 16.0664 13.6534 16.3023 13.4236L19.8516 9.9666L14.9454 9.24949C14.62 9.20193 14.3389 8.99747 14.1933 8.70262L12 4.25925Z" fill="currentColor"/>
</symbol>
<symbol id="cart">
<g clip-path="url(#clip0_17868_340)">
<path fill-rule="evenodd" clip-rule="evenodd" d="M7 21C7 19.8954 7.89543 19 9 19C10.1046 19 11 19.8954 11 21C11 22.1046 10.1046 23 9 23C7.89543 23 7 22.1046 7 21Z" fill="currentColor"/>
<path fill-rule="evenodd" clip-rule="evenodd" d="M18 21C18 19.8954 18.8954 19 20 19C21.1046 19 22 19.8954 22 21C22 22.1046 21.1046 23 20 23C18.8954 23 18 22.1046 18 21Z" fill="currentColor"/>
<path fill-rule="evenodd" clip-rule="evenodd" d="M0 1C0 0.447715 0.447715 0 1 0H5C5.47663 0 5.88701 0.336385 5.98055 0.803743L6.82043 5H23C23.298 5 23.5805 5.13293 23.7705 5.36256C23.9605 5.59218 24.0381 5.89458 23.9823 6.18733L22.3809 14.5848C22.2437 15.2754 21.868 15.8958 21.3195 16.3373C20.7738 16.7766 20.0916 17.011 19.3914 17H9.68864C8.98837 17.011 8.3062 16.7766 7.76048 16.3373C7.21225 15.8959 6.83664 15.2759 6.69933 14.5857C6.69927 14.5854 6.69939 14.5859 6.69933 14.5857L5.02879 6.2392C5.02201 6.21159 5.01638 6.18353 5.01195 6.15508L4.18032 2H1C0.447715 2 0 1.55228 0 1ZM7.22073 7L8.66084 14.1952C8.70656 14.4254 8.83179 14.6322 9.01461 14.7793C9.19743 14.9265 9.42619 15.0047 9.66084 15.0002L9.68 15H19.4L19.4192 15.0002C19.6538 15.0047 19.8826 14.9265 20.0654 14.7793C20.2474 14.6328 20.3723 14.4273 20.4185 14.1984L21.7913 7H7.22073Z" fill="currentColor"/>
</g>
<defs>
<clipPath id="clip0_17868_340">
<rect width="24" height="24" fill="white"/>
</clipPath>
</defs>
</symbol>
<symbol id="error">
<path fill-rule="evenodd" clip-rule="evenodd" d="M10.5282 2.28309C10.9775 2.03014 11.4844 1.89725 12 1.89725C12.5156 1.89725 13.0225 2.03014 13.4718 2.28309C13.9211 2.53604 14.2976 2.90052 14.565 3.34136L14.5679 3.34611L23.0379 17.4861L23.046 17.4999C23.308 17.9536 23.4466 18.4679 23.448 18.9917C23.4495 19.5155 23.3138 20.0306 23.0544 20.4857C22.795 20.9408 22.4209 21.3201 21.9694 21.5857C21.518 21.8514 21.0048 21.9942 20.481 21.9999L20.47 22.0001L3.51903 22C2.99522 21.9942 2.48206 21.8514 2.03059 21.5857C1.57912 21.3201 1.20507 20.9408 0.94567 20.4857C0.686267 20.0306 0.550547 19.5155 0.552014 18.9917C0.55348 18.4679 0.692083 17.9536 0.95403 17.4999L0.962153 17.4861L9.43215 3.34612L10.29 3.85998L9.43502 3.34136C9.70243 2.90052 10.0789 2.53604 10.5282 2.28309ZM11.1462 4.37663L2.68271 18.5058C2.59753 18.6556 2.55249 18.8249 2.55201 18.9973C2.55152 19.1719 2.59676 19.3436 2.68322 19.4953C2.76969 19.647 2.89438 19.7734 3.04487 19.862C3.19404 19.9498 3.36342 19.9973 3.53642 20H20.4636C20.6366 19.9973 20.806 19.9498 20.9552 19.862C21.1057 19.7734 21.2303 19.647 21.3168 19.4953C21.4033 19.3436 21.4485 19.1719 21.448 18.9973C21.4476 18.8249 21.4025 18.6557 21.3174 18.5059L12.855 4.37862C12.8546 4.37796 12.8542 4.37729 12.8538 4.37663C12.7648 4.23058 12.6397 4.1098 12.4906 4.02586C12.3409 3.94154 12.1719 3.89725 12 3.89725C11.8282 3.89725 11.6592 3.94154 11.5094 4.02586C11.3603 4.1098 11.2353 4.23058 11.1462 4.37663Z" fill="currentColor"/>
<path fill-rule="evenodd" clip-rule="evenodd" d="M12 8C12.5523 8 13 8.44772 13 9V13C13 13.5523 12.5523 14 12 14C11.4477 14 11 13.5523 11 13V9C11 8.44772 11.4477 8 12 8Z" fill="currentColor"/>
<path fill-rule="evenodd" clip-rule="evenodd" d="M12 15C12.5523 15 13 15.4477 13 16V16.5C13 17.0523 12.5523 17.5 12 17.5C11.4477 17.5 11 17.0523 11 16.5V16C11 15.4477 11.4477 15 12 15Z" fill="currentColor"/>
</symbol>
<symbol id="pin">
<path fill-rule="evenodd" clip-rule="evenodd" d="M12 2C9.87827 2 7.84344 2.84285 6.34315 4.34315C4.84285 5.84344 4 7.87827 4 10C4 13.0981 6.01574 16.1042 8.22595 18.4373C9.31061 19.5822 10.3987 20.5195 11.2167 21.1708C11.5211 21.4133 11.787 21.6152 12 21.7726C12.213 21.6152 12.4789 21.4133 12.7833 21.1708C13.6013 20.5195 14.6894 19.5822 15.774 18.4373C17.9843 16.1042 20 13.0981 20 10C20 7.87827 19.1571 5.84344 17.6569 4.34315C16.1566 2.84285 14.1217 2 12 2ZM12 23C11.4453 23.8321 11.445 23.8319 11.4448 23.8317L11.4419 23.8298L11.4352 23.8253L11.4123 23.8098C11.3928 23.7966 11.3651 23.7776 11.3296 23.753C11.2585 23.7038 11.1565 23.6321 11.0278 23.5392C10.7705 23.3534 10.4064 23.0822 9.97082 22.7354C9.10133 22.043 7.93939 21.0428 6.77405 19.8127C4.48426 17.3958 2 13.9019 2 10C2 7.34784 3.05357 4.8043 4.92893 2.92893C6.8043 1.05357 9.34784 0 12 0C14.6522 0 17.1957 1.05357 19.0711 2.92893C20.9464 4.8043 22 7.34784 22 10C22 13.9019 19.5157 17.3958 17.226 19.8127C16.0606 21.0428 14.8987 22.043 14.0292 22.7354C13.5936 23.0822 13.2295 23.3534 12.9722 23.5392C12.8435 23.6321 12.7415 23.7038 12.6704 23.753C12.6349 23.7776 12.6072 23.7966 12.5877 23.8098L12.5648 23.8253L12.5581 23.8298L12.556 23.8312C12.5557 23.8314 12.5547 23.8321 12 23ZM12 23L12.5547 23.8321C12.2188 24.056 11.7807 24.0556 11.4448 23.8317L12 23Z" fill="currentColor"/>
<path fill-rule="evenodd" clip-rule="evenodd" d="M12 8C10.8954 8 10 8.89543 10 10C10 11.1046 10.8954 12 12 12C13.1046 12 14 11.1046 14 10C14 8.89543 13.1046 8 12 8ZM8 10C8 7.79086 9.79086 6 12 6C14.2091 6 16 7.79086 16 10C16 12.2091 14.2091 14 12 14C9.79086 14 8 12.2091 8 10Z" fill="currentColor"/>
</symbol>
<symbol id="credit_card">
<path fill-rule="evenodd" clip-rule="evenodd" d="M3 5C2.44772 5 2 5.44772 2 6V18C2 18.5523 2.44772 19 3 19H21C21.5523 19 22 18.5523 22 18V6C22 5.44772 21.5523 5 21 5H3ZM0 6C0 4.34315 1.34315 3 3 3H21C22.6569 3 24 4.34315 24 6V18C24 19.6569 22.6569 21 21 21H3C1.34315 21 0 19.6569 0 18V6Z" fill="currentColor"/>
<path fill-rule="evenodd" clip-rule="evenodd" d="M0 10C0 9.44772 0.447715 9 1 9H23C23.5523 9 24 9.44772 24 10C24 10.5523 23.5523 11 23 11H1C0.447715 11 0 10.5523 0 10Z" fill="currentColor"/>
</symbol>
<symbol id="bar_chart">
<path fill-rule="evenodd" clip-rule="evenodd" d="M18 9C18.5523 9 19 9.44772 19 10V20C19 20.5523 18.5523 21 18 21C17.4477 21 17 20.5523 17 20V10C17 9.44772 17.4477 9 18 9Z" fill="currentColor"/>
<path fill-rule="evenodd" clip-rule="evenodd" d="M12 3C12.5523 3 13 3.44772 13 4V20C13 20.5523 12.5523 21 12 21C11.4477 21 11 20.5523 11 20V4C11 3.44772 11.4477 3 12 3Z" fill="currentColor"/>
<path fill-rule="evenodd" clip-rule="evenodd" d="M6 13C6.55228 13 7 13.4477 7 14V20C7 20.5523 6.55228 21 6 21C5.44772 21 5 20.5523 5 20V14C5 13.4477 5.44772 13 6 13Z" fill="currentColor"/>
</symbol>
<symbol id="map">
<path fill-rule="evenodd" clip-rule="evenodd" d="M7.50386 1.13176C7.79416 0.965872 8.14816 0.956046 8.44721 1.10557L15.9685 4.86623L22.5039 1.13176C22.8134 0.954898 23.1936 0.956168 23.5019 1.13509C23.8102 1.31401 24 1.64353 24 2V18C24 18.3589 23.8077 18.6902 23.4961 18.8682L16.4961 22.8682C16.2058 23.0341 15.8518 23.044 15.5528 22.8944L8.03147 19.1338L1.49614 22.8682C1.18664 23.0451 0.806388 23.0438 0.498073 22.8649C0.189758 22.686 0 22.3565 0 22V6C0 5.64114 0.192286 5.3098 0.503861 5.13176L7.50386 1.13176ZM8.03147 3.13377L2 6.58032V20.2768L7.50386 17.1318C7.79416 16.9659 8.14816 16.956 8.44721 17.1056L15.9685 20.8662L22 17.4197V3.72318L16.4961 6.86824C16.2058 7.03413 15.8518 7.04395 15.5528 6.89443L8.03147 3.13377Z" fill="currentColor"/>
<path fill-rule="evenodd" clip-rule="evenodd" d="M8 1C8.55228 1 9 1.44772 9 2V18C9 18.5523 8.55228 19 8 19C7.44772 19 7 18.5523 7 18V2C7 1.44772 7.44772 1 8 1Z" fill="currentColor"/>
<path fill-rule="evenodd" clip-rule="evenodd" d="M16 5C16.5523 5 17 5.44772 17 6V22C17 22.5523 16.5523 23 16 23C15.4477 23 15 22.5523 15 22V6C15 5.44772 15.4477 5 16 5Z" fill="currentColor"/>
</symbol>
<symbol id="x">
<path fill-rule="evenodd" clip-rule="evenodd" d="M18.7071 5.29289C19.0976 5.68342 19.0976 6.31658 18.7071 6.70711L6.70711 18.7071C6.31658 19.0976 5.68342 19.0976 5.29289 18.7071C4.90237 18.3166 4.90237 17.6834 5.29289 17.2929L17.2929 5.29289C17.6834 4.90237 18.3166 4.90237 18.7071 5.29289Z" fill="currentColor"/>
<path fill-rule="evenodd" clip-rule="evenodd" d="M5.29289 5.29289C5.68342 4.90237 6.31658 4.90237 6.70711 5.29289L18.7071 17.2929C19.0976 17.6834 19.0976 18.3166 18.7071 18.7071C18.3166 19.0976 17.6834 19.0976 17.2929 18.7071L5.29289 6.70711C4.90237 6.31658 4.90237 5.68342 5.29289 5.29289Z" fill="currentColor"/>
</symbol>
<symbol id="search">
<path fill-rule="evenodd" clip-rule="evenodd" d="M11 4C7.13401 4 4 7.13401 4 11C4 14.866 7.13401 18 11 18C14.866 18 18 14.866 18 11C18 7.13401 14.866 4 11 4ZM2 11C2 6.02944 6.02944 2 11 2C15.9706 2 20 6.02944 20 11C20 15.9706 15.9706 20 11 20C6.02944 20 2 15.9706 2 11Z" fill="currentColor"/>
<path fill-rule="evenodd" clip-rule="evenodd" d="M15.9428 15.9429C16.3333 15.5524 16.9665 15.5524 17.357 15.9429L21.707 20.2929C22.0975 20.6834 22.0975 21.3166 21.707 21.7071C21.3165 22.0977 20.6833 22.0977 20.2928 21.7071L15.9428 17.3571C15.5523 16.9666 15.5523 16.3334 15.9428 15.9429Z" fill="currentColor"/>
</symbol>
<symbol id="check">
<path fill-rule="evenodd" clip-rule="evenodd" d="M20.7071 5.29289C21.0976 5.68342 21.0976 6.31658 20.7071 6.70711L9.70711 17.7071C9.31658 18.0976 8.68342 18.0976 8.29289 17.7071L3.29289 12.7071C2.90237 12.3166 2.90237 11.6834 3.29289 11.2929C3.68342 10.9024 4.31658 10.9024 4.70711 11.2929L9 15.5858L19.2929 5.29289C19.6834 4.90237 20.3166 4.90237 20.7071 5.29289Z" fill="black"/>
</symbol>
<symbol id="menu">
<path fill-rule="evenodd" clip-rule="evenodd" d="M2 12C2 11.4477 2.44772 11 3 11H21C21.5523 11 22 11.4477 22 12C22 12.5523 21.5523 13 21 13H3C2.44772 13 2 12.5523 2 12Z" fill="currentColor"/>
<path fill-rule="evenodd" clip-rule="evenodd" d="M2 6C2 5.44772 2.44772 5 3 5H21C21.5523 5 22 5.44772 22 6C22 6.55228 21.5523 7 21 7H3C2.44772 7 2 6.55228 2 6Z" fill="currentColor"/>
<path fill-rule="evenodd" clip-rule="evenodd" d="M2 18C2 17.4477 2.44772 17 3 17H21C21.5523 17 22 17.4477 22 18C22 18.5523 21.5523 19 21 19H3C2.44772 19 2 18.5523 2 18Z" fill="currentColor"/>
</symbol>
<symbol id="zap">
<path fill-rule="evenodd" clip-rule="evenodd" d="M13.3982 1.08269C13.8054 1.25946 14.0474 1.68353 13.9923 2.12403L13.1328 9H21C21.388 9 21.741 9.22445 21.9056 9.57584C22.0702 9.92723 22.0166 10.3421 21.7682 10.6402L11.7682 22.6402C11.484 22.9812 11.009 23.0941 10.6018 22.9173C10.1946 22.7405 9.95267 22.3165 10.0077 21.876L10.8672 15H3.00001C2.61199 15 2.259 14.7755 2.09442 14.4242C1.92984 14.0728 1.98339 13.6579 2.23179 13.3598L12.2318 1.35981C12.516 1.01878 12.991 0.905925 13.3982 1.08269ZM5.13505 13H12C12.2868 13 12.5599 13.1232 12.7497 13.3382C12.9395 13.5532 13.0279 13.8394 12.9923 14.124L12.4154 18.7395L18.865 11H12C11.7132 11 11.4402 10.8768 11.2503 10.6618C11.0605 10.4468 10.9722 10.1606 11.0077 9.87596L11.5847 5.26045L5.13505 13Z" fill="currentColor"/>
</symbol>
<symbol id="upload">
<g clip-path="url(#clip0_17868_373)">
<path fill-rule="evenodd" clip-rule="evenodd" d="M11.2929 11.2929C11.6834 10.9024 12.3166 10.9024 12.7071 11.2929L16.7071 15.2929C17.0976 15.6834 17.0976 16.3166 16.7071 16.7071C16.3166 17.0976 15.6834 17.0976 15.2929 16.7071L12 13.4142L8.70711 16.7071C8.31658 17.0976 7.68342 17.0976 7.29289 16.7071C6.90237 16.3166 6.90237 15.6834 7.29289 15.2929L11.2929 11.2929Z" fill="currentColor"/>
<path fill-rule="evenodd" clip-rule="evenodd" d="M12 11C12.5523 11 13 11.4477 13 12V21C13 21.5523 12.5523 22 12 22C11.4477 22 11 21.5523 11 21V12C11 11.4477 11.4477 11 12 11Z" fill="currentColor"/>
<path fill-rule="evenodd" clip-rule="evenodd" d="M8.66326 2.00857C10.0227 1.95849 11.3759 2.21724 12.621 2.76539C13.8661 3.31354 14.9707 4.13682 15.8518 5.17332C16.5633 6.01025 17.1141 6.96861 17.479 8.00001H18C19.333 8.00089 20.6284 8.44567 21.6806 9.26415C22.7328 10.0826 23.4825 11.2282 23.8113 12.52C24.1401 13.8119 24.0293 15.1765 23.4965 16.3984C22.9636 17.6203 22.039 18.6299 20.8686 19.268C20.3837 19.5324 19.7763 19.3536 19.512 18.8687C19.2476 18.3838 19.4264 17.7764 19.9113 17.512C20.6916 17.0866 21.308 16.4135 21.6632 15.5989C22.0184 14.7843 22.0923 13.8746 21.8731 13.0134C21.6539 12.1521 21.1541 11.3884 20.4526 10.8428C19.7512 10.2971 18.888 10.0006 17.9993 10H16.74C16.2841 10 15.8859 9.69169 15.7718 9.25032C15.5069 8.22591 15.0133 7.27487 14.328 6.46869C13.6427 5.66252 12.7835 5.02219 11.8151 4.59585C10.8467 4.16952 9.79428 3.96826 8.7369 4.00722C7.67952 4.04618 6.64473 4.32433 5.71032 4.82078C4.77592 5.31722 3.96622 6.01904 3.34209 6.87346C2.71796 7.72787 2.29565 8.71267 2.1069 9.75379C1.91815 10.7949 1.96789 11.8653 2.25236 12.8844C2.53683 13.9036 3.04863 14.845 3.74929 15.6378C4.11501 16.0517 4.076 16.6836 3.66215 17.0493C3.24831 17.4151 2.61635 17.3761 2.25063 16.9622C1.34977 15.9428 0.691738 14.7324 0.325992 13.4221C-0.039755 12.1118 -0.103695 10.7356 0.138979 9.39703C0.381653 8.05844 0.924626 6.79228 1.72708 5.69374C2.52953 4.5952 3.57057 3.69287 4.77195 3.05458C5.97333 2.41629 7.30377 2.05866 8.66326 2.00857Z" fill="currentColor"/>
<path fill-rule="evenodd" clip-rule="evenodd" d="M11.2929 11.2929C11.6834 10.9024 12.3166 10.9024 12.7071 11.2929L16.7071 15.2929C17.0976 15.6834 17.0976 16.3166 16.7071 16.7071C16.3166 17.0976 15.6834 17.0976 15.2929 16.7071L12 13.4142L8.70711 16.7071C8.31658 17.0976 7.68342 17.0976 7.29289 16.7071C6.90237 16.3166 6.90237 15.6834 7.29289 15.2929L11.2929 11.2929Z" fill="currentColor"/>
</g>
<defs>
<clipPath id="clip0_17868_373">
<rect width="24" height="24" fill="white"/>
</clipPath>
</defs>
</symbol>
<symbol id="inbox">
<path fill-rule="evenodd" clip-rule="evenodd" d="M1 12C1 11.4477 1.44772 11 2 11H8C8.33435 11 8.64658 11.1671 8.83205 11.4453L10.5352 14H13.4648L15.1679 11.4453C15.3534 11.1671 15.6656 11 16 11H22C22.5523 11 23 11.4477 23 12C23 12.5523 22.5523 13 22 13H16.5352L14.8321 15.5547C14.6466 15.8329 14.3344 16 14 16H10C9.66565 16 9.35342 15.8329 9.16795 15.5547L7.46482 13H2C1.44772 13 1 12.5523 1 12Z" fill="currentColor"/>
<path fill-rule="evenodd" clip-rule="evenodd" d="M7.24 3L16.76 3C17.3181 3.0003 17.8656 3.15628 18.34 3.45042C18.8139 3.7443 19.1965 4.16444 19.4449 4.66368C19.4451 4.66412 19.4453 4.66456 19.4455 4.665L22.8942 11.5523C22.9638 11.6913 23 11.8446 23 12V18C23 18.7957 22.6839 19.5587 22.1213 20.1213C21.5587 20.6839 20.7957 21 20 21H4C3.20435 21 2.44129 20.6839 1.87868 20.1213C1.31607 19.5587 1 18.7956 1 18V12C1 11.8446 1.03624 11.6913 1.10583 11.5523L4.55447 4.665C4.55471 4.66451 4.55495 4.66403 4.5552 4.66354C4.80358 4.16436 5.18617 3.74427 5.66004 3.45042C6.13437 3.15628 6.68187 3.0003 7.24 3ZM5.45 5.11L6.34417 5.55773L3 12.2364V18C3 18.2652 3.10536 18.5196 3.29289 18.7071C3.48043 18.8946 3.73478 19 4 19H20C20.2652 19 20.5196 18.8946 20.7071 18.7071C20.8946 18.5196 21 18.2652 21 18V12.2364L17.6558 5.55773L17.6545 5.555C17.5717 5.38839 17.4441 5.24818 17.2859 5.15014C17.1279 5.05213 16.9456 5.00013 16.7597 5H7.24034C7.05436 5.00013 6.87211 5.05213 6.71405 5.15014C6.55594 5.24819 6.42832 5.38839 6.34553 5.555L5.45 5.11Z" fill="currentColor"/>
</symbol>
<symbol id="image">
<path fill-rule="evenodd" clip-rule="evenodd" d="M5 4C4.44772 4 4 4.44772 4 5V19C4 19.5523 4.44772 20 5 20H19C19.5523 20 20 19.5523 20 19V5C20 4.44772 19.5523 4 19 4H5ZM2 5C2 3.34315 3.34315 2 5 2H19C20.6569 2 22 3.34315 22 5V19C22 20.6569 20.6569 22 19 22H5C3.34315 22 2 20.6569 2 19V5Z" fill="currentColor"/>
<path fill-rule="evenodd" clip-rule="evenodd" d="M8.5 8C8.22386 8 8 8.22386 8 8.5C8 8.77614 8.22386 9 8.5 9C8.77614 9 9 8.77614 9 8.5C9 8.22386 8.77614 8 8.5 8ZM6 8.5C6 7.11929 7.11929 6 8.5 6C9.88071 6 11 7.11929 11 8.5C11 9.88071 9.88071 11 8.5 11C7.11929 11 6 9.88071 6 8.5Z" fill="currentColor"/>
<path fill-rule="evenodd" clip-rule="evenodd" d="M15.2929 9.29289C15.6834 8.90237 16.3166 8.90237 16.7071 9.29289L21.7071 14.2929C22.0976 14.6834 22.0976 15.3166 21.7071 15.7071C21.3166 16.0976 20.6834 16.0976 20.2929 15.7071L16 11.4142L5.70711 21.7071C5.31658 22.0976 4.68342 22.0976 4.29289 21.7071C3.90237 21.3166 3.90237 20.6834 4.29289 20.2929L15.2929 9.29289Z" fill="currentColor"/>
</symbol>
<symbol id="filter">
<path fill-rule="evenodd" clip-rule="evenodd" d="M1.0929 2.57912C1.25675 2.22596 1.61069 2 2.00001 2H22C22.3893 2 22.7433 2.22596 22.9071 2.57912C23.071 2.93229 23.015 3.34845 22.7636 3.64573L15 12.8261V21C15 21.3466 14.8206 21.6684 14.5257 21.8507C14.2309 22.0329 13.8628 22.0494 13.5528 21.8944L9.5528 19.8944C9.21402 19.725 9.00001 19.3788 9.00001 19V12.8261L1.23644 3.64573C0.985046 3.34845 0.929037 2.93229 1.0929 2.57912ZM4.15532 4L10.7636 11.8143C10.9162 11.9948 11 12.2236 11 12.46V18.382L13 19.382V12.46C13 12.2236 13.0838 11.9948 13.2364 11.8143L19.8447 4H4.15532Z" fill="currentColor"/>
</symbol>
<symbol id="edit">
<path fill-rule="evenodd" clip-rule="evenodd" d="M1.87868 3.87868C2.44129 3.31607 3.20435 3 4 3H11C11.5523 3 12 3.44772 12 4C12 4.55228 11.5523 5 11 5H4C3.73478 5 3.48043 5.10536 3.29289 5.29289C3.10536 5.48043 3 5.73478 3 6V20C3 20.2652 3.10536 20.5196 3.29289 20.7071C3.48043 20.8946 3.73478 21 4 21H18C18.2652 21 18.5196 20.8946 18.7071 20.7071C18.8946 20.5196 19 20.2652 19 20V13C19 12.4477 19.4477 12 20 12C20.5523 12 21 12.4477 21 13V20C21 20.7957 20.6839 21.5587 20.1213 22.1213C19.5587 22.6839 18.7957 23 18 23H4C3.20435 23 2.44129 22.6839 1.87868 22.1213C1.31607 21.5587 1 20.7957 1 20V6C1 5.20435 1.31607 4.44129 1.87868 3.87868Z" fill="currentColor"/>
<path fill-rule="evenodd" clip-rule="evenodd" d="M20 2.87869C19.7026 2.87869 19.4174 2.99683 19.2071 3.20712L9.90299 12.5113L9.37439 14.6256L11.4888 14.097L20.7929 4.79291C21.0032 4.58262 21.1213 4.29741 21.1213 4.00001C21.1213 3.70262 21.0032 3.41741 20.7929 3.20712C20.5826 2.99683 20.2974 2.87869 20 2.87869ZM17.7929 1.79291C18.3783 1.20755 19.1722 0.878693 20 0.878693C20.8278 0.878693 21.6218 1.20755 22.2071 1.79291C22.7925 2.37827 23.1213 3.17219 23.1213 4.00001C23.1213 4.82784 22.7925 5.62176 22.2071 6.20712L12.7071 15.7071C12.579 15.8353 12.4184 15.9262 12.2426 15.9702L8.24256 16.9702C7.90178 17.0553 7.54129 16.9555 7.29291 16.7071C7.04453 16.4587 6.94468 16.0983 7.02988 15.7575L8.02988 11.7575C8.07384 11.5816 8.16476 11.4211 8.29291 11.2929L17.7929 1.79291Z" fill="currentColor"/>
</symbol>
<symbol id="download">
<path fill-rule="evenodd" clip-rule="evenodd" d="M3 14C3.55228 14 4 14.4477 4 15V19C4 19.2652 4.10536 19.5196 4.29289 19.7071C4.48043 19.8946 4.73478 20 5 20H19C19.2652 20 19.5196 19.8946 19.7071 19.7071C19.8946 19.5196 20 19.2652 20 19V15C20 14.4477 20.4477 14 21 14C21.5523 14 22 14.4477 22 15V19C22 19.7957 21.6839 20.5587 21.1213 21.1213C20.5587 21.6839 19.7957 22 19 22H5C4.20435 22 3.44129 21.6839 2.87868 21.1213C2.31607 20.5587 2 19.7956 2 19V15C2 14.4477 2.44772 14 3 14Z" fill="currentColor"/>
<path fill-rule="evenodd" clip-rule="evenodd" d="M6.29289 9.29289C6.68342 8.90237 7.31658 8.90237 7.70711 9.29289L12 13.5858L16.2929 9.29289C16.6834 8.90237 17.3166 8.90237 17.7071 9.29289C18.0976 9.68342 18.0976 10.3166 17.7071 10.7071L12.7071 15.7071C12.3166 16.0976 11.6834 16.0976 11.2929 15.7071L6.29289 10.7071C5.90237 10.3166 5.90237 9.68342 6.29289 9.29289Z" fill="currentColor"/>
<path fill-rule="evenodd" clip-rule="evenodd" d="M12 2C12.5523 2 13 2.44772 13 3V15C13 15.5523 12.5523 16 12 16C11.4477 16 11 15.5523 11 15V3C11 2.44772 11.4477 2 12 2Z" fill="currentColor"/>
</symbol>
<symbol id="success">
<path fill-rule="evenodd" clip-rule="evenodd" d="M15.663 3.77342C13.8902 2.98352 11.9096 2.78783 10.0166 3.21555C8.12351 3.64326 6.41942 4.67145 5.15845 6.14678C3.89749 7.62211 3.14721 9.46552 3.01951 11.4021C2.89181 13.3387 3.39354 15.2646 4.44987 16.8928C5.50619 18.5209 7.06051 19.764 8.88102 20.4365C10.7015 21.1091 12.6907 21.1752 14.5518 20.6249C16.413 20.0746 18.0464 18.9375 19.2084 17.3831C20.3705 15.8286 20.9989 13.9402 21 11.9994V11.08C21 10.5277 21.4477 10.08 22 10.08C22.5523 10.08 23 10.5277 23 11.08V12C22.9986 14.3721 22.2306 16.6807 20.8103 18.5806C19.39 20.4804 17.3936 21.8703 15.1189 22.5428C12.8442 23.2154 10.413 23.1346 8.18792 22.3126C5.96285 21.4906 4.06312 19.9713 2.77206 17.9813C1.48099 15.9914 0.86777 13.6374 1.02384 11.2705C1.17992 8.90358 2.09693 6.65052 3.63811 4.84734C5.17929 3.04416 7.26206 1.78748 9.57581 1.26472C11.8896 0.74196 14.3103 0.981129 16.477 1.94656C16.9815 2.17134 17.2082 2.76252 16.9834 3.26699C16.7587 3.77146 16.1675 3.9982 15.663 3.77342Z" fill="currentColor"/>
<path fill-rule="evenodd" clip-rule="evenodd" d="M22.7068 3.29254C23.0975 3.68287 23.0978 4.31603 22.7075 4.70675L12.7075 14.7168C12.52 14.9044 12.2656 15.0099 12.0002 15.01C11.7349 15.0101 11.4805 14.9047 11.2929 14.7171L8.29289 11.7171C7.90237 11.3266 7.90237 10.6934 8.29289 10.3029C8.68342 9.91237 9.31658 9.91237 9.70711 10.3029L11.9996 12.5954L21.2925 3.29325C21.6829 2.90253 22.316 2.90221 22.7068 3.29254Z" fill="currentColor"/>
</symbol>
</defs>
</svg>
